<?xml version="1.0" standalone="no"?>
<!DOCTYPE svg PUBLIC "-//W3C//DTD SVG 20010904//EN"
 "http://www.w3.org/TR/2001/REC-SVG-20010904/DTD/svg10.dtd">
<svg version="1.0" xmlns="http://www.w3.org/2000/svg"
 width="4961.000000pt" height="3508.000000pt" viewBox="0 0 4961.000000 3508.000000"
 preserveAspectRatio="xMidYMid meet">

<g transform="translate(0.000000,3508.000000) scale(0.100000,-0.100000)"
fill="#000000" stroke="none">
<path d="M22795 21740 c3 -5 8 -10 11 -10 2 0 4 5 4 10 0 6 -5 10 -11 10 -5 0
-7 -4 -4 -10z"/>
<path d="M22988 21573 c7 -3 16 -2 19 1 4 3 -2 6 -13 5 -11 0 -14 -3 -6 -6z"/>
<path d="M22684 21508 l-29 -33 33 29 c30 28 37 36 29 36 -2 0 -16 -15 -33
-32z"/>
<path d="M23334 21498 c0 -24 -3 -53 -7 -65 -5 -14 -4 -23 2 -23 15 0 33 67
26 100 -10 44 -23 36 -21 -12z"/>
<path d="M22614 21447 c-16 -12 -41 -32 -53 -44 -13 -12 -52 -39 -87 -59 -35
-21 -62 -39 -60 -41 2 -2 32 14 67 36 35 22 94 57 131 78 45 24 63 40 55 45
-16 10 -18 10 -53 -15z"/>
<path d="M22317 21265 c-38 -19 -83 -39 -100 -44 -16 -6 -28 -13 -25 -16 5 -5
112 39 173 72 62 34 28 25 -48 -12z"/>
<path d="M22145 21190 c-13 -6 -15 -9 -5 -9 8 0 22 4 30 9 18 12 2 12 -25 0z"/>
<path d="M22060 21164 c-41 -18 -274 -83 -406 -113 -195 -46 -548 -103 -580
-95 -12 3 -26 -1 -33 -10 -12 -14 -7 -16 41 -16 94 0 172 -40 228 -117 43 -60
56 -104 40 -142 -36 -88 -269 -205 -606 -306 -174 -53 -466 -126 -472 -120 -2
2 34 62 82 134 47 71 86 132 86 135 0 3 -7 6 -15 6 -8 0 -24 -19 -36 -42 -68
-136 -255 -366 -359 -443 -57 -42 -174 -101 -220 -110 -19 -4 -42 -18 -53 -31
-10 -13 -23 -24 -29 -24 -6 0 -4 8 5 18 22 25 21 32 -5 32 -20 0 -20 1 -5 18
29 31 19 36 -17 8 -19 -14 -46 -30 -60 -36 -14 -5 -26 -14 -26 -19 0 -11 -89
-75 -95 -69 -2 2 26 39 63 83 56 66 83 115 64 115 -3 0 -28 -24 -56 -53 -28
-28 -75 -72 -105 -97 -65 -53 -56 -27 20 56 48 53 59 74 39 74 -7 0 -7 6 0 19
11 22 14 42 2 25 -17 -27 -156 -173 -160 -170 -10 10 31 95 48 99 10 3 26 20
35 38 l16 34 -31 -35 c-33 -37 -39 -27 -14 21 28 56 9 39 -50 -41 -63 -87 -81
-105 -66 -66 5 14 9 40 8 58 0 18 7 51 16 72 25 59 13 54 -28 -11 -58 -94 -55
-91 -55 -66 -1 12 -6 23 -13 25 -10 4 -10 16 0 58 17 75 0 84 -28 16 -12 -31
-28 -56 -36 -56 -7 0 -20 -12 -29 -27 l-16 -28 5 26 c11 52 26 172 23 176 -2
2 -12 -18 -22 -44 -9 -27 -28 -64 -40 -83 -13 -19 -27 -52 -31 -74 -14 -76
-23 -11 -13 93 5 57 8 106 5 108 -2 3 -12 -22 -21 -54 -9 -32 -21 -62 -25 -68
-4 -5 -11 -31 -15 -57 -4 -27 -11 -48 -15 -48 -15 0 -20 33 -20 132 0 143 -7
129 -41 -74 -6 -38 -15 -68 -19 -68 -10 0 -20 51 -21 109 0 25 -6 62 -13 81
-12 33 -13 34 -20 12 -4 -13 -7 -51 -7 -85 0 -34 -2 -78 -6 -97 -6 -33 -6 -34
-15 -10 -5 14 -14 50 -20 80 -5 30 -16 62 -23 70 -7 8 -15 24 -19 35 -3 11 -4
-31 -1 -93 3 -97 2 -110 -11 -98 -8 8 -14 31 -14 50 0 22 -5 36 -13 36 -7 0
-25 26 -40 58 l-28 57 7 -45 c4 -25 8 -58 9 -75 1 -16 8 -43 14 -58 15 -37 14
-40 -6 -28 -10 5 -17 21 -18 38 0 18 -5 28 -15 28 -11 0 -17 15 -21 50 -3 28
-7 40 -7 28 -3 -34 -18 -36 -32 -3 -18 42 -30 47 -20 8 4 -18 11 -46 15 -62 5
-24 8 -27 16 -15 8 11 9 10 7 -5 -2 -10 -13 -22 -25 -27 -22 -8 -23 -6 -23 36
0 52 -17 61 -22 13 l-3 -33 -33 58 c-39 65 -49 74 -27 21 19 -46 19 -54 -1
-54 -12 0 -15 -6 -10 -25 4 -14 2 -25 -2 -25 -11 0 -42 33 -42 44 0 5 -11 21
-25 38 -32 38 -32 26 2 -31 17 -29 22 -46 15 -49 -7 -2 -12 -16 -12 -30 l0
-26 -22 22 c-17 17 -20 24 -10 34 15 15 15 30 -1 52 -12 16 -13 14 -9 -18 5
-45 -6 -45 -38 -1 -23 32 -51 51 -33 23 9 -16 12 -108 3 -108 -3 0 -23 18 -44
40 -21 23 -41 38 -44 35 -3 -3 5 -16 17 -29 14 -15 18 -26 12 -30 -7 -5 -7
-15 -1 -32 13 -33 13 -34 -5 -34 -19 0 -35 31 -35 67 0 15 -5 35 -11 43 -7 11
-8 5 -3 -22 8 -49 -13 -51 -52 -5 -19 22 -25 26 -21 12 11 -38 19 -105 12
-105 -17 0 -46 23 -59 48 -21 37 -21 6 0 -54 8 -25 13 -48 10 -51 -10 -11 -36
7 -55 37 -17 28 -19 29 -24 11 -3 -12 -1 -21 4 -21 5 0 9 -6 9 -14 0 -8 8 -28
17 -45 19 -32 12 -51 -11 -32 -8 7 -25 11 -37 9 -21 -3 -22 -4 -6 -20 9 -9 17
-21 17 -27 0 -5 7 -14 16 -19 14 -8 11 -12 -19 -21 -39 -13 -41 -37 -4 -44 15
-3 9 -6 -20 -12 -61 -11 -57 -35 5 -36 42 -1 44 -2 17 -9 -16 -4 -47 -8 -68
-9 -59 -2 -41 -25 24 -31 l54 -5 -40 -7 c-22 -4 -53 -8 -69 -8 -25 0 -28 3
-22 23 3 12 6 27 6 34 0 6 8 14 18 16 15 4 15 5 0 6 -22 1 -21 61 1 79 15 12
15 13 0 9 -14 -5 -18 5 -25 51 -5 31 -7 65 -6 75 1 9 -3 17 -8 17 -5 0 -7 7
-4 15 4 8 1 15 -6 15 -7 0 -10 6 -7 14 3 7 0 19 -6 25 -8 8 -7 11 3 11 11 1
11 3 -2 11 -10 5 -18 14 -18 19 0 5 8 7 18 4 16 -5 16 -5 0 9 -14 11 -15 16
-5 27 10 10 8 12 -10 7 -27 -6 -30 8 -5 22 14 9 13 10 -12 11 -29 0 -29 0 -11
21 19 20 19 20 -8 10 -30 -12 -37 2 -9 19 14 9 11 10 -13 5 l-30 -7 25 27 25
26 -28 -10 c-41 -16 -45 -13 -17 11 l25 21 -30 -7 c-24 -6 -28 -5 -17 5 19 20
14 31 -8 19 -20 -11 -30 3 -10 15 6 3 10 11 10 17 0 6 -9 3 -20 -7 -22 -20
-26 -14 -10 16 13 23 3 25 -22 2 -10 -9 -18 -11 -18 -5 0 6 5 14 10 17 6 3 10
11 10 18 0 8 -3 8 -12 -1 -20 -20 -28 -13 -17 15 l10 27 -22 -19 c-22 -20 -22
-20 -15 3 5 13 3 22 -3 22 -6 0 -11 -4 -11 -10 0 -5 -5 -10 -10 -10 -6 0 -9
10 -7 23 2 12 2 16 0 10 -6 -19 -23 -16 -23 3 0 14 -3 14 -15 4 -13 -11 -15
-8 -16 16 -1 17 -3 22 -6 12 -6 -26 -23 -22 -24 5 0 12 -3 16 -6 10 -7 -19
-23 -16 -23 5 0 12 -2 14 -8 4 -7 -10 -15 -10 -36 -2 -15 5 -31 8 -36 5 -5 -3
-11 -2 -14 3 -8 14 -142 0 -177 -18 -14 -8 -19 -7 -19 2 0 7 -9 2 -19 -11 -14
-18 -20 -21 -24 -10 -4 10 -6 9 -6 -4 -1 -14 -6 -17 -21 -12 -14 5 -20 2 -20
-9 0 -24 -18 -19 -23 7 -3 15 -5 12 -6 -11 -1 -39 -21 -39 -33 -1 -5 16 -6 13
-2 -13 5 -37 -11 -62 -22 -34 -3 9 -10 14 -14 11 -13 -8 -113 107 -173 197
-65 99 -128 222 -164 321 -14 40 -30 82 -34 95 l-9 24 -28 -22 c-63 -49 -172
-116 -247 -151 -44 -21 -73 -38 -65 -38 20 -1 197 79 259 118 28 17 55 31 59
31 4 0 16 -33 26 -72 37 -149 98 -280 224 -486 49 -81 77 -142 65 -142 -4 0
-18 10 -31 23 l-25 22 17 -33 c23 -45 13 -52 -25 -16 -27 25 -30 26 -20 7 15
-29 2 -30 -77 -7 -101 29 -210 96 -318 196 -30 28 -45 36 -48 27 -2 -8 -9 -36
-16 -63 -14 -60 -57 -148 -104 -209 -20 -26 -33 -47 -28 -47 15 0 104 121 134
182 17 35 33 65 34 67 2 2 43 -34 92 -80 48 -46 116 -100 151 -119 34 -19 80
-48 102 -63 43 -30 45 -53 2 -36 -32 12 -42 5 -14 -11 32 -16 26 -33 -10 -28
-31 5 -31 5 -10 -11 24 -18 19 -31 -13 -31 -16 0 -18 -2 -7 -9 16 -10 6 -31
-14 -31 -8 0 -11 -7 -8 -20 3 -11 1 -20 -5 -20 -5 0 -13 -8 -16 -17 -3 -10
-12 -27 -19 -38 -99 -159 -123 -228 -157 -440 -12 -72 -12 -253 0 -316 16 -85
67 -184 120 -233 96 -90 197 -120 375 -113 214 8 357 61 499 183 74 63 85 68
148 79 38 7 71 9 73 5 4 -7 -48 -33 -149 -75 -57 -24 -39 -26 39 -4 38 10 75
19 82 19 31 0 7 -21 -68 -60 -81 -42 -103 -63 -36 -35 20 8 46 15 57 15 11 0
20 4 20 8 0 4 20 15 45 24 53 20 59 11 11 -17 -53 -31 -166 -106 -166 -110 0
-5 50 16 129 55 77 38 103 34 41 -6 -25 -16 -47 -32 -50 -36 -3 -4 -28 -23
-55 -43 -67 -47 -52 -44 50 11 91 49 110 46 44 -8 -22 -18 -57 -48 -77 -66
-35 -32 -36 -33 -7 -18 17 8 44 24 60 35 17 12 39 21 50 21 16 0 11 -9 -25
-44 -79 -75 -91 -94 -38 -57 30 22 53 31 64 27 15 -6 10 -15 -31 -56 -62 -63
-47 -65 20 -4 64 58 94 79 103 70 4 -4 -12 -25 -35 -47 -23 -21 -40 -39 -37
-39 3 0 -9 -19 -27 -42 l-34 -43 58 53 c32 28 63 52 68 52 18 0 8 -27 -24 -66
-19 -21 -40 -50 -46 -64 -10 -19 -5 -16 23 13 19 20 45 37 56 37 l22 0 -23
-37 c-12 -21 -29 -46 -38 -56 -13 -16 -13 -17 2 -11 10 3 34 31 53 61 20 29
51 61 68 70 17 9 49 31 72 49 40 33 74 44 74 25 0 -6 -18 -20 -40 -32 -22 -13
-40 -30 -40 -39 0 -9 -9 -25 -20 -35 -22 -20 -26 -14 -10 16 17 31 2 22 -49
-31 -26 -27 -43 -51 -37 -53 7 -2 4 -15 -8 -33 -12 -18 -2 -12 26 19 53 56 76
63 52 15 -9 -18 -23 -41 -32 -51 -20 -22 -7 -35 15 -15 22 19 53 30 53 19 0
-32 -25 -72 -48 -77 -15 -3 -45 -9 -67 -14 -38 -9 -250 -57 -360 -82 -27 -6
-59 -14 -71 -19 l-21 -7 34 -174 c19 -95 47 -241 63 -325 l28 -152 -53 -134
c-29 -75 -77 -207 -105 -294 -28 -87 -63 -175 -76 -196 -60 -92 -212 -213
-371 -295 -40 -20 -73 -41 -73 -46 0 -15 126 3 213 30 151 48 274 124 366 226
40 46 100 188 180 428 96 289 96 231 7 554 -42 154 -76 285 -76 292 0 13 30
24 297 113 198 66 213 69 193 46 -11 -13 -10 -14 6 -8 10 3 33 17 50 30 17 12
34 20 38 16 9 -9 71 60 86 97 7 16 19 30 26 30 21 0 17 -17 -11 -54 -14 -18
-25 -39 -25 -46 0 -6 -32 -45 -72 -86 -63 -66 -80 -77 -155 -105 -67 -25 -83
-35 -78 -48 8 -19 176 -502 213 -613 l26 -76 -28 -129 c-15 -70 -45 -222 -68
-338 -34 -179 -46 -220 -76 -275 -132 -240 -328 -454 -517 -564 -67 -40 -82
-53 -71 -63 10 -10 209 57 276 94 199 107 379 289 495 498 38 69 55 153 106
545 l33 246 -92 219 c-50 121 -107 258 -127 305 -20 47 -39 92 -42 100 -3 12
29 31 129 77 73 34 134 60 136 58 2 -2 -9 -21 -24 -42 -23 -31 -16 -26 36 23
36 33 75 66 87 72 14 8 25 27 30 54 9 43 33 65 33 30 0 -34 -26 -95 -67 -157
-22 -33 -46 -71 -53 -85 -16 -32 -6 -22 78 78 45 53 64 83 68 112 4 25 12 40
21 40 10 0 12 -6 8 -21 -6 -18 -5 -19 13 -8 28 18 52 6 45 -23 -6 -23 -6 -23
15 -4 30 26 50 15 44 -23 -5 -39 1 -39 25 -1 l19 31 14 -25 c7 -14 9 -33 5
-43 -7 -17 -7 -17 -14 1 -6 16 -21 -28 -67 -209 -7 -26 90 172 107 219 7 20
17 36 21 36 8 0 12 -25 8 -45 -8 -39 -40 -220 -40 -229 1 -6 19 39 41 99 23
61 48 117 56 125 14 13 15 1 10 -115 l-5 -130 27 107 c21 86 30 108 44 108 14
0 17 -10 18 -62 0 -35 4 -83 7 -108 7 -44 8 -42 19 44 7 49 15 91 18 95 3 3
14 0 23 -5 11 -8 20 -34 27 -82 13 -93 25 -102 25 -19 0 36 4 68 9 71 18 11
52 -30 66 -79 l13 -50 1 48 c1 26 3 47 6 47 20 0 67 -35 79 -58 11 -19 15 -22
16 -9 0 21 23 22 44 1 12 -11 16 -36 16 -91 0 -42 5 -175 11 -297 l11 -221 79
-251 c112 -357 146 -441 215 -525 157 -192 368 -333 568 -379 94 -22 177 -24
183 -4 2 7 -22 26 -54 44 -146 82 -297 223 -430 400 -69 93 -103 150 -118 200
-12 40 -82 201 -162 375 -78 170 -83 184 -113 395 -55 378 -66 439 -83 459 -8
9 -22 41 -32 71 -10 30 -20 61 -23 68 -11 30 20 8 49 -35 18 -27 35 -50 39
-53 23 -20 87 -125 120 -199 47 -104 122 -242 158 -291 81 -110 165 -180 218
-180 17 0 37 -7 44 -16 31 -36 48 -36 112 -2 144 77 370 335 590 674 134 206
258 423 226 397 -12 -10 -78 -14 -78 -5 0 1 14 31 31 65 53 103 57 124 43 187
-15 66 -66 213 -81 232 -6 7 -13 28 -15 46 -4 29 -2 32 16 26 60 -18 206 -78
244 -100 24 -14 49 -23 56 -21 12 5 55 135 76 227 13 62 12 154 -2 168 -7 7
-25 12 -40 12 -25 0 -28 3 -28 35 0 23 -7 42 -22 56 -13 11 -36 33 -53 48 -35
32 -66 45 -155 65 -83 19 -151 20 -330 7 -176 -13 -236 -22 -378 -58 -70 -18
-93 -11 -41 12 l34 15 -37 -6 c-67 -11 -108 -8 -108 7 0 7 9 9 21 6 14 -4 28
2 44 19 12 13 40 31 61 38 50 19 34 20 -31 2 -27 -7 -55 -11 -62 -9 -7 2 -21
-1 -32 -7 -15 -8 -21 -8 -21 0 0 22 46 58 98 76 28 10 52 22 52 26 0 10 -45 0
-80 -17 -14 -7 -30 -10 -37 -8 -6 2 -14 -1 -18 -6 -3 -6 -18 -11 -32 -11 l-25
0 23 25 c25 27 137 90 146 82 7 -7 -53 -47 -71 -47 -9 0 -16 -5 -16 -11 0 -7
11 -8 33 -3 17 5 48 9 67 9 19 0 46 6 59 14 13 7 26 9 30 5 3 -5 78 -10 166
-10 116 -1 209 -9 337 -28 183 -27 322 -33 396 -16 40 10 50 7 169 -46 70 -31
149 -64 176 -75 108 -43 186 -122 173 -174 -5 -18 -2 -25 9 -25 24 0 18 52
-10 95 -15 20 -24 39 -22 42 3 2 38 -7 78 -21 93 -31 265 -69 389 -86 188 -24
479 -107 583 -165 51 -29 117 -99 117 -124 0 -13 2 -13 9 -3 7 11 24 5 83 -27
41 -23 80 -41 87 -41 7 0 -22 17 -63 39 -41 21 -97 61 -124 88 -88 88 -268
160 -559 224 -75 16 -139 31 -141 33 -2 2 8 15 22 29 36 37 47 142 20 211 -11
28 23 18 119 -33 189 -102 512 -237 607 -255 19 -4 -14 11 -75 33 -190 68
-447 185 -545 249 -25 16 -70 43 -100 60 l-55 32 45 0 c132 0 451 -51 720
-116 134 -33 362 -99 385 -112 5 -4 44 -18 85 -32 41 -15 84 -30 94 -35 13 -6
17 -5 12 3 -4 6 -32 19 -62 29 -31 9 -58 22 -61 29 -2 6 12 27 32 47 19 19 35
40 35 46 0 6 -16 -7 -36 -29 -20 -22 -47 -43 -60 -46 -14 -4 -66 8 -131 29
-379 124 -758 196 -1121 213 l-142 6 -62 61 -62 60 35 -7 c65 -14 442 -23 554
-14 125 11 545 3 650 -12 77 -11 219 -46 250 -62 11 -6 40 -27 64 -46 24 -19
56 -36 71 -37 26 -2 24 0 -19 29 -165 109 -293 134 -719 143 l-283 6 30 28
c23 21 31 37 31 63 0 19 4 37 9 40 11 7 -23 129 -49 170 -26 43 -25 48 8 40
61 -13 338 -87 347 -92 6 -4 24 -7 40 -7 17 -1 75 -11 130 -23 55 -11 125 -23
155 -26 66 -6 53 -3 -114 30 -71 14 -136 30 -145 34 -9 5 -43 13 -76 20 -80
15 -230 58 -263 76 -15 8 -36 14 -47 14 -33 0 -136 36 -145 50 -6 9 -21 11
-56 5 l-48 -7 54 -18 c30 -10 59 -24 65 -32 5 -7 22 -21 37 -30 39 -26 76
-111 83 -193 6 -68 5 -72 -22 -97 -44 -42 -100 -52 -288 -52 -178 0 -298 13
-560 60 -169 31 -171 32 -158 45 6 6 137 14 334 19 l324 8 -397 -2 c-219 -2
-400 -1 -403 2 -2 3 12 14 33 25 20 11 79 46 131 79 l95 59 190 29 c193 30
285 47 255 49 -9 1 -83 -8 -164 -19 -81 -11 -157 -20 -169 -20 -45 2 64 30
185 48 125 19 185 19 173 0 -4 -6 17 -7 58 -3 55 6 71 4 106 -14 47 -24 62
-46 62 -91 0 -25 -12 -43 -54 -86 -30 -30 -63 -54 -73 -54 -15 0 -16 -2 -3
-10 23 -15 26 -13 72 36 61 65 71 89 65 146 l-6 48 47 1 47 2 -55 7 c-61 9
-90 18 -90 30 0 5 6 10 13 13 6 2 -62 3 -153 2 -168 -2 -304 -23 -509 -76 -96
-25 -105 -24 -91 0 25 47 -2 144 -55 197 -41 41 -25 47 97 39 60 -4 189 -3
286 2 l177 8 -250 7 c-137 3 -270 7 -295 7 -25 1 -61 5 -80 9 -34 8 -33 8 60
44 172 66 369 122 675 192 39 9 131 25 204 36 74 11 136 22 139 25 9 9 -23 5
-179 -20 -403 -66 -773 -172 -1047 -301 -40 -19 -77 -34 -81 -34 -5 0 -28 9
-52 20 -24 11 -59 20 -76 20 -18 0 -33 3 -33 8 0 4 51 25 113 46 126 44 289
118 375 170 212 128 578 288 767 336 l40 10 -45 -6 c-96 -11 -376 -121 -601
-235 -52 -27 -98 -49 -101 -49 -4 0 1 18 9 39 15 37 14 42 -9 93 -32 70 -76
119 -133 149 -25 13 -45 27 -45 31 0 3 33 11 73 17 122 19 376 71 492 101 209
54 409 119 365 119 -8 0 -31 -7 -50 -15z m-1162 -845 c18 -6 31 -16 30 -21 -9
-25 -870 -345 -970 -361 -53 -8 -47 5 15 34 36 16 85 57 160 131 l109 107 216
57 c120 31 235 60 257 65 49 9 138 4 183 -12z m283 9 c53 -17 104 -73 123
-138 14 -46 14 -55 1 -80 -8 -15 -29 -33 -46 -39 -57 -20 -804 -99 -817 -86
-8 8 56 61 103 84 62 30 155 71 161 71 3 0 30 11 59 25 30 13 66 27 80 31 14
3 28 11 32 17 4 7 0 8 -13 3 -10 -5 -48 -18 -84 -31 -36 -13 -94 -35 -129 -50
-35 -14 -65 -24 -68 -21 -7 7 18 18 160 75 70 28 141 58 157 66 38 20 64 20
56 0 -6 -16 11 -20 33 -6 9 6 10 11 2 15 -21 13 -11 25 42 50 60 28 91 31 148
14z m-701 -252 c-6 -8 -44 -27 -83 -42 -40 -15 -76 -31 -81 -35 -6 -5 -19 -9
-30 -9 -21 1 -21 1 -1 13 16 9 189 83 204 86 2 1 -2 -5 -9 -13z m805 -58 c-78
-49 -281 -148 -304 -148 -12 0 -21 6 -21 15 0 8 -13 24 -30 36 -16 12 -27 25
-25 29 2 4 33 10 67 14 61 6 256 54 308 75 51 20 53 10 5 -21z m-884 -28 c-23
-20 -51 -27 -51 -12 0 9 39 29 60 30 10 1 7 -5 -9 -18z m-1894 -12 c-3 -8 -6
-5 -6 6 -1 11 2 17 5 13 3 -3 4 -12 1 -19z m2410 16 c-3 -3 -12 -4 -19 -1 -8
3 -5 6 6 6 11 1 17 -2 13 -5z m-662 -14 c4 -6 -7 -10 -27 -9 -31 1 -32 1 -8 9
14 4 26 8 27 9 1 1 5 -3 8 -9z m-1705 -26 c0 -14 -4 -23 -9 -20 -5 3 -7 15 -4
26 7 28 13 25 13 -6z m-200 -57 c0 -49 -22 -24 -24 26 -2 43 -1 45 11 25 7
-13 12 -36 13 -51z m170 49 c0 -8 -4 -18 -10 -21 -5 -3 -10 3 -10 14 0 12 5
21 10 21 6 0 10 -6 10 -14z m-43 -38 c-3 -8 -6 -5 -6 6 -1 11 2 17 5 13 3 -3
4 -12 1 -19z m2374 11 c19 -7 44 -21 57 -33 l23 -21 -26 -7 c-15 -4 -63 -10
-107 -14 l-80 -7 7 41 7 41 -49 4 c-28 2 -10 4 43 5 50 1 106 -3 125 -9z
m-2689 -21 c19 -35 38 -92 32 -98 -10 -9 -45 43 -40 57 3 8 -1 25 -10 39 -10
14 -12 24 -6 24 6 0 17 -10 24 -22z m1679 -20 c-11 -18 -30 -40 -43 -48 -16
-11 -11 -1 16 33 45 55 57 61 27 15z m-661 -12 c148 -21 279 -83 355 -168 35
-38 85 -129 85 -155 0 -10 -160 -13 -739 -15 -653 -3 -738 -1 -733 12 13 38
79 113 135 156 105 79 274 152 399 173 84 14 392 12 498 -3z m461 -39 l-23
-22 17 28 c10 15 20 25 23 22 3 -3 -5 -16 -17 -28z m269 6 c-36 -42 -61 -63
-73 -63 -6 0 9 20 33 45 48 49 79 62 40 18z m1325 17 c22 -5 105 -21 184 -36
168 -30 232 -51 295 -100 66 -50 62 -64 -16 -58 -35 2 -153 11 -263 19 -179
14 -668 64 -785 81 -68 10 -24 22 81 23 70 1 109 8 215 40 135 41 211 50 289
31z m-3088 -97 c-11 -10 -27 8 -27 30 l0 21 16 -22 c9 -13 14 -26 11 -29z
m1798 7 c-21 -22 -44 -40 -50 -40 -11 1 70 80 82 80 4 0 -11 -18 -32 -40z m50
-65 c-36 -30 -81 -52 -91 -42 -3 3 117 77 126 76 3 0 -13 -15 -35 -34z m-1895
15 c0 -5 -2 -10 -4 -10 -3 0 -8 5 -11 10 -3 6 -1 10 4 10 6 0 11 -4 11 -10z
m3140 -50 c29 -7 23 -8 -35 -9 -88 -1 -175 9 -175 20 0 10 154 1 210 -11z
m-4337 -113 c8 -42 11 -77 7 -77 -16 0 -40 82 -40 133 1 68 14 46 33 -56z
m4770 86 c96 -6 118 -15 75 -33 -20 -8 -18 -9 15 -9 31 -1 37 2 37 20 0 20 4
21 75 17 75 -3 76 -4 120 -50 51 -54 69 -108 59 -175 -9 -64 -40 -93 -96 -93
-69 1 -166 17 -263 45 -149 43 -545 207 -545 225 0 4 32 16 71 25 71 18 164
18 399 0 44 -4 58 -3 44 4 -11 5 -76 12 -145 16 -68 4 -131 12 -139 17 -15 9
47 7 293 -9z m-1758 -13 c-3 -5 -14 -10 -23 -9 -14 0 -13 2 3 9 27 11 27 11
20 0z m1249 2 c7 -12 -103 -42 -189 -51 -56 -7 -106 -3 -245 19 -121 19 -164
29 -140 32 63 9 569 8 574 0z m-3214 -162 c19 -6 12 -8 -32 -9 -31 -1 -60 4
-63 9 -7 12 58 12 95 0z m2055 0 c-3 -5 -11 -10 -16 -10 -6 0 -7 5 -4 10 3 6
11 10 16 10 6 0 7 -4 4 -10z m-2090 -45 l30 -13 -47 -1 c-44 -1 -65 8 -51 23
10 9 35 6 68 -9z m0 -58 c7 -6 -5 -7 -35 -3 -50 8 -55 10 -46 25 7 11 63 -4
81 -22z m-37 -37 c44 -27 40 -32 -13 -13 -25 8 -45 19 -45 24 0 15 23 10 58
-11z m-1 -67 c-9 -8 -78 27 -72 36 3 6 20 1 41 -11 19 -11 33 -22 31 -25z
m2293 17 c-14 -4 -32 -8 -40 -9 -13 -1 -13 0 0 9 8 5 26 9 40 9 l25 -1 -25 -8z
m-63 -16 c-3 -3 -12 -4 -19 -1 -8 3 -5 6 6 6 11 1 17 -2 13 -5z m-2280 -29
l28 -25 -37 17 c-21 9 -38 20 -38 25 0 15 19 8 47 -17z m-34 -40 l18 -25 -26
12 c-14 6 -25 17 -25 25 0 20 13 15 33 -12z m2377 10 c-36 -8 -78 -13 -95 -13
-27 1 -27 1 -5 5 14 3 29 9 35 14 5 5 36 9 70 8 l60 -1 -65 -13z m-2405 -55
c10 -11 14 -20 8 -20 -5 0 -18 9 -28 20 -10 11 -14 20 -8 20 5 0 18 -9 28 -20z
m2415 -9 c20 -5 11 -10 -46 -20 -87 -17 -117 -9 -49 12 56 17 60 18 95 8z
m-2433 -59 c-12 -6 -37 19 -37 36 0 11 6 9 23 -9 12 -13 18 -26 14 -27z m2323
4 c0 -2 -18 -6 -40 -8 -22 -2 -40 0 -40 4 0 5 18 8 40 8 22 0 40 -2 40 -4z
m-2360 -47 c0 -11 -70 -32 -78 -24 -9 8 18 25 41 25 14 0 17 5 12 23 -6 21 -6
21 9 3 9 -11 16 -23 16 -27z m2550 22 c50 -6 44 -7 -60 -13 -63 -3 -117 -4
-119 -2 -2 2 7 8 20 13 28 11 81 12 159 2z m-186 -43 c-7 -10 -67 -20 -95 -16
l-24 5 23 9 c27 11 102 13 96 2z m-2404 -39 c19 2 33 0 29 -3 -8 -9 -141 -57
-145 -53 -4 3 8 16 49 53 6 7 16 9 22 6 5 -3 26 -5 45 -3z m2570 1 c16 -5 -8
-8 -70 -8 -62 0 -86 3 -70 8 14 4 45 8 70 8 25 0 56 -4 70 -8z m57 -16 c-3 -3
-12 -4 -19 -1 -8 3 -5 6 6 6 11 1 17 -2 13 -5z m-257 -14 c11 -7 -1 -10 -40
-9 -40 0 -49 3 -35 9 27 12 57 12 75 0z m170 -45 l45 -15 -64 5 c-35 3 -73 6
-85 6 -12 1 -6 5 14 9 19 4 37 8 40 9 3 0 25 -6 50 -14z m-2452 -2 c-10 -2
-28 -2 -40 0 -13 2 -5 4 17 4 22 1 32 -1 23 -4z m2277 -23 c16 -7 12 -9 -18
-9 -23 -1 -36 3 -32 9 7 12 23 12 50 0z m-2230 -30 c-3 -5 -27 -9 -53 -9 -42
1 -44 2 -17 9 45 11 77 11 70 0z m2405 -34 c33 -14 34 -15 5 -9 -16 3 -48 12
-70 19 l-40 14 35 -4 c19 -2 51 -11 70 -20z m-175 -6 c4 -6 -12 -10 -42 -9
-36 0 -43 3 -28 9 28 12 63 12 70 0z m-2197 -12 c-3 -8 -27 -14 -64 -15 l-59
-1 50 13 c65 17 78 18 73 3z m25 -52 c4 -10 -7 -15 -40 -20 -85 -11 -102 -5
-38 14 75 23 72 23 78 6z m2145 1 c9 -10 -1 -12 -48 -7 -77 7 -88 20 -18 20
33 0 60 -5 66 -13z m172 -3 c59 -24 43 -27 -21 -5 -30 11 -46 20 -37 20 10 1
36 -6 58 -15z m-2292 -59 c-3 -3 -36 -12 -74 -19 -38 -8 -77 -17 -86 -21 -11
-4 -18 -3 -18 4 0 6 12 13 28 16 15 4 52 14 82 24 30 10 59 14 64 10 5 -5 7
-11 4 -14z m2032 5 c0 -5 -7 -7 -15 -4 -8 4 -15 8 -15 10 0 2 7 4 15 4 8 0 15
-4 15 -10z m55 -10 c8 -13 -5 -13 -25 0 -13 8 -13 10 2 10 9 0 20 -4 23 -10z
m171 -10 l39 -20 -40 6 c-22 4 -42 10 -45 14 -3 4 -12 10 -20 13 -11 4 -9 6 6
6 11 1 38 -8 60 -19z m-2226 -29 c0 -7 -120 -46 -146 -46 -6 0 -22 -8 -37 -18
-49 -32 -63 -19 -17 15 26 20 45 28 47 21 3 -8 21 -4 56 13 52 24 97 31 97 15z
m2030 -21 c13 -9 13 -10 0 -10 -8 0 -22 5 -30 10 -13 9 -13 10 0 10 8 0 22 -5
30 -10z m151 -16 c17 -8 29 -18 26 -21 -3 -2 -14 0 -25 6 -12 6 -32 11 -46 11
-14 0 -26 5 -26 10 0 15 37 12 71 -6z m-2151 -3 c0 -4 -26 -20 -57 -35 -32
-14 -68 -33 -80 -42 -20 -14 -21 -14 -17 3 9 33 154 103 154 74z m27 -47 c2
-6 -24 -23 -57 -38 -34 -16 -74 -42 -89 -59 -16 -16 -34 -28 -40 -26 -16 6 34
54 104 100 59 38 75 43 82 23z m1948 6 c3 -5 -1 -10 -9 -10 -9 0 -16 5 -16 10
0 6 4 10 9 10 6 0 13 -4 16 -10z m119 -11 c14 -7 27 -17 30 -24 4 -10 -2 -10
-22 1 -15 8 -32 14 -39 14 -6 0 -15 5 -18 10 -8 13 18 13 49 -1z m-149 -49 c8
-13 -5 -13 -25 0 -13 8 -13 10 2 10 9 0 20 -4 23 -10z m111 -21 c8 -14 -10
-11 -32 6 -18 13 -18 14 4 8 12 -3 25 -9 28 -14z m-1967 -3 c9 -11 1 -20 -39
-46 -27 -18 -48 -36 -45 -41 8 -12 -21 -65 -40 -72 -17 -7 -21 18 -4 28 6 4 8
13 6 20 -4 10 95 125 108 125 1 0 8 -6 14 -14z m1767 -11 c10 -8 14 -15 8 -15
-5 0 -19 7 -30 15 -10 8 -14 15 -8 15 5 0 19 -7 30 -15z m-1726 -33 c0 -9 -81
-80 -110 -97 -25 -15 17 46 54 77 31 27 56 36 56 20z m35 -32 c3 -5 2 -16 -2
-24 -12 -19 -105 -98 -110 -92 -8 7 17 45 55 86 40 41 47 45 57 30z m40 -66
c0 -20 -7 -32 -23 -40 -13 -6 -36 -23 -50 -38 l-28 -26 -2 25 c-1 17 6 30 24
41 14 9 32 30 40 46 19 36 39 32 39 -8z m-165 -25 c0 -21 -50 -79 -69 -79 -13
0 25 81 43 92 19 13 26 9 26 -13z m1941 4 c13 -16 12 -17 -3 -4 -17 13 -22 21
-14 21 2 0 10 -8 17 -17z m-1681 -24 c0 -6 -10 -25 -22 -41 l-21 -30 21 11
c12 6 27 20 34 30 9 12 19 17 27 12 10 -6 7 -19 -13 -57 -37 -72 -48 -85 -40
-49 7 28 6 29 -12 15 -10 -8 -23 -20 -29 -27 -13 -14 -135 -66 -142 -59 -3 2
25 26 61 52 36 26 69 56 72 67 17 54 36 87 49 87 8 0 15 -5 15 -11z m1611 -15
l24 -27 -27 18 c-16 9 -28 21 -28 26 0 14 5 11 31 -17z m-1833 -16 c-3 -7 -13
-15 -24 -17 -16 -3 -17 -1 -5 13 16 19 34 21 29 4z m1765 -23 c23 -32 17 -32
-13 0 -13 14 -19 25 -14 25 5 0 17 -12 27 -25z m-1438 4 c4 -5 1 -18 -7 -27
-8 -9 -21 -32 -28 -50 -18 -46 -30 -49 -23 -5 10 74 39 114 58 82z m1360 -39
c10 -11 16 -20 13 -20 -3 0 -13 9 -23 20 -10 11 -16 20 -13 20 3 0 13 -9 23
-20z m-349 -86 c8 -18 14 -37 14 -41 0 -12 -29 32 -40 62 -15 39 9 21 26 -21z
m-122 -58 c15 -26 25 -50 23 -52 -2 -3 -16 0 -30 5 -25 10 -47 58 -47 106 0
17 2 17 14 5 7 -8 26 -37 40 -64z m-95 23 c15 -45 14 -51 -9 -39 -13 7 -20 21
-20 40 0 39 15 38 29 -1z m-79 1 c0 -19 -11 -26 -23 -14 -8 8 3 34 14 34 5 0
9 -9 9 -20z"/>
<path d="M21868 19583 c7 -3 16 -2 19 1 4 3 -2 6 -13 5 -11 0 -14 -3 -6 -6z"/>
<path d="M22725 21015 c-25 -12 -26 -14 -5 -9 28 7 60 23 45 23 -5 0 -23 -6
-40 -14z"/>
<path d="M22628 20973 c7 -3 16 -2 19 1 4 3 -2 6 -13 5 -11 0 -14 -3 -6 -6z"/>
<path d="M22588 20963 c7 -3 16 -2 19 1 4 3 -2 6 -13 5 -11 0 -14 -3 -6 -6z"/>
<path d="M22548 20953 c7 -3 16 -2 19 1 4 3 -2 6 -13 5 -11 0 -14 -3 -6 -6z"/>
<path d="M22508 20943 c7 -3 16 -2 19 1 4 3 -2 6 -13 5 -11 0 -14 -3 -6 -6z"/>
<path d="M22180 20930 l-75 -6 71 -2 c88 -2 152 -23 181 -60 13 -15 23 -22 23
-16 0 6 -11 21 -25 34 -13 12 -22 26 -20 30 4 7 -21 16 -65 24 -8 1 -49 -1
-90 -4z"/>
<path d="M22423 20923 c9 -2 23 -2 30 0 6 3 -1 5 -18 5 -16 0 -22 -2 -12 -5z"/>
<path d="M22382 20800 c0 -19 2 -27 5 -17 2 9 2 25 0 35 -3 9 -5 1 -5 -18z"/>
<path d="M22357 20725 c-10 -20 -27 -39 -37 -42 -27 -7 -25 -23 3 -22 24 0 69
17 50 18 -16 1 -17 33 -2 48 6 6 9 17 7 23 -2 6 -11 -5 -21 -25z"/>
<path d="M22505 20690 l-90 -6 77 -2 c42 -1 80 -7 83 -12 4 -6 12 -7 18 -3 7
5 28 13 47 19 l35 12 -40 -1 c-22 0 -80 -4 -130 -7z"/>
<path d="M22494 20548 l-29 -33 33 29 c30 28 37 36 29 36 -2 0 -16 -15 -33
-32z"/>
<path d="M22718 20523 c12 -2 30 -2 40 0 9 3 -1 5 -23 4 -22 0 -30 -2 -17 -4z"/>
<path d="M22593 20513 c9 -2 23 -2 30 0 6 3 -1 5 -18 5 -16 0 -22 -2 -12 -5z"/>
<path d="M22380 20480 c-50 -27 -52 -29 -20 -23 53 9 102 31 95 43 -9 14 -13
13 -75 -20z"/>
<path d="M22960 20418 c-1 -13 -7 -34 -15 -48 -17 -30 -18 -40 -4 -40 12 0 39
61 39 90 0 11 -4 20 -10 20 -5 0 -10 -10 -10 -22z"/>
<path d="M22228 20413 c7 -3 16 -2 19 1 4 3 -2 6 -13 5 -11 0 -14 -3 -6 -6z"/>
<path d="M22178 20403 c6 -2 18 -2 25 0 6 3 1 5 -13 5 -14 0 -19 -2 -12 -5z"/>
<path d="M22128 20393 c6 -2 18 -2 25 0 6 3 1 5 -13 5 -14 0 -19 -2 -12 -5z"/>
<path d="M22050 20380 l-25 -8 25 0 c14 0 34 3 45 8 l20 9 -20 -1 c-11 0 -31
-4 -45 -8z"/>
<path d="M21968 20363 c12 -2 30 -2 40 0 9 3 -1 5 -23 4 -22 0 -30 -2 -17 -4z"/>
<path d="M21863 20353 c15 -2 39 -2 55 0 15 2 2 4 -28 4 -30 0 -43 -2 -27 -4z"/>
<path d="M22778 20263 c-16 -2 -28 -10 -28 -17 0 -10 11 -10 50 -2 80 16 62
32 -22 19z"/>
<path d="M22901 20261 c-8 -5 -9 -11 -3 -15 14 -8 43 4 36 15 -7 11 -15 11
-33 0z"/>
<path d="M22558 20243 c12 -2 32 -2 45 0 12 2 2 4 -23 4 -25 0 -35 -2 -22 -4z"/>
<path d="M22423 20233 c9 -2 25 -2 35 0 9 3 1 5 -18 5 -19 0 -27 -2 -17 -5z"/>
<path d="M22315 20220 c-3 -5 -2 -10 4 -10 5 0 13 5 16 10 3 6 2 10 -4 10 -5
0 -13 -4 -16 -10z"/>
<path d="M22223 20203 c9 -2 23 -2 30 0 6 3 -1 5 -18 5 -16 0 -22 -2 -12 -5z"/>
<path d="M24057 20139 c-4 -16 -3 -18 9 -8 16 13 19 29 5 29 -5 0 -11 -9 -14
-21z"/>
<path d="M19316 20079 c-9 -18 -14 -34 -12 -37 3 -2 12 10 21 28 9 18 14 34
12 37 -3 2 -12 -10 -21 -28z"/>
<path d="M24024 20088 l-19 -23 23 19 c21 18 27 26 19 26 -2 0 -12 -10 -23
-22z"/>
<path d="M18711 20084 c0 -11 3 -14 6 -6 3 7 2 16 -1 19 -3 4 -6 -2 -5 -13z"/>
<path d="M18440 20060 c0 -11 4 -20 9 -20 5 0 7 9 4 20 -3 11 -7 20 -9 20 -2
0 -4 -9 -4 -20z"/>
<path d="M19386 20040 c-14 -21 -20 -37 -13 -34 12 4 52 74 43 74 -2 0 -15
-18 -30 -40z"/>
<path d="M23760 19960 c-19 -4 -46 -12 -60 -18 -20 -9 -13 -10 39 -6 68 5 81
9 81 25 0 10 -9 10 -60 -1z"/>
<path d="M23100 19945 c72 -15 156 -20 110 -6 -14 5 -59 11 -100 14 l-75 6 65
-14z"/>
<path d="M23287 19923 c18 -2 50 -2 70 0 21 2 7 4 -32 4 -38 0 -55 -2 -38 -4z"/>
<path d="M23563 19923 c15 -2 37 -2 50 0 12 2 0 4 -28 4 -27 0 -38 -2 -22 -4z"/>
<path d="M24088 19923 c7 -3 16 -2 19 1 4 3 -2 6 -13 5 -11 0 -14 -3 -6 -6z"/>
<path d="M24158 19913 c7 -3 16 -2 19 1 4 3 -2 6 -13 5 -11 0 -14 -3 -6 -6z"/>
<path d="M17941 19804 c0 -11 3 -14 6 -6 3 7 2 16 -1 19 -3 4 -6 -2 -5 -13z"/>
<path d="M17945 19769 c-10 -14 -1 -21 19 -13 9 3 13 10 10 15 -7 12 -21 11
-29 -2z"/>
<path d="M17900 19739 c0 -5 5 -7 10 -4 6 3 10 8 10 11 0 2 -4 4 -10 4 -5 0
-10 -5 -10 -11z"/>
<path d="M24448 19700 c-8 -19 -22 -41 -31 -49 -10 -7 -17 -20 -17 -29 0 -12
4 -12 21 4 28 25 51 71 46 92 -2 12 -8 6 -19 -18z"/>
<path d="M17915 19709 c-9 -14 -2 -20 14 -10 8 6 9 11 3 15 -6 3 -14 1 -17 -5z"/>
<path d="M17925 19671 c-3 -5 -2 -12 3 -15 13 -8 53 5 46 15 -7 12 -41 12 -49
0z"/>
<path d="M17890 19610 c0 -13 11 -13 30 0 12 8 11 10 -7 10 -13 0 -23 -4 -23
-10z"/>
<path d="M23287 19545 c7 -49 13 -58 13 -19 0 16 -5 36 -10 44 -6 10 -7 2 -3
-25z"/>
<path d="M23378 19573 c7 -3 16 -2 19 1 4 3 -2 6 -13 5 -11 0 -14 -3 -6 -6z"/>
<path d="M23410 19566 c0 -2 7 -6 15 -10 8 -3 15 -1 15 4 0 6 -7 10 -15 10 -8
0 -15 -2 -15 -4z"/>
<path d="M23478 19543 c7 -3 16 -2 19 1 4 3 -2 6 -13 5 -11 0 -14 -3 -6 -6z"/>
<path d="M23543 19533 c9 -2 23 -2 30 0 6 3 -1 5 -18 5 -16 0 -22 -2 -12 -5z"/>
<path d="M24088 19533 c6 -2 18 -2 25 0 6 3 1 5 -13 5 -14 0 -19 -2 -12 -5z"/>
<path d="M23643 19523 c15 -2 37 -2 50 0 12 2 0 4 -28 4 -27 0 -38 -2 -22 -4z"/>
<path d="M23978 19523 c12 -2 30 -2 40 0 9 3 -1 5 -23 4 -22 0 -30 -2 -17 -4z"/>
<path d="M23378 19305 c16 -11 22 -24 19 -37 -4 -16 -3 -17 9 -7 14 11 53 9
87 -6 10 -4 17 -3 17 3 0 10 -66 38 -130 57 l-25 7 23 -17z"/>
<path d="M22828 19233 c7 -3 16 -2 19 1 4 3 -2 6 -13 5 -11 0 -14 -3 -6 -6z"/>
<path d="M22870 19220 c8 -5 22 -10 30 -10 13 0 13 1 0 10 -8 5 -22 10 -30 10
-13 0 -13 -1 0 -10z"/>
<path d="M22938 19203 c6 -2 18 -2 25 0 6 3 1 5 -13 5 -14 0 -19 -2 -12 -5z"/>
<path d="M23003 19193 c9 -2 25 -2 35 0 9 3 1 5 -18 5 -19 0 -27 -2 -17 -5z"/>
<path d="M23238 19193 c7 -3 16 -2 19 1 4 3 -2 6 -13 5 -11 0 -14 -3 -6 -6z"/>
<path d="M23120 19180 c20 -13 100 -13 100 0 0 6 -26 10 -57 10 -41 0 -54 -3
-43 -10z"/>
<path d="M21639 18979 c0 -2 -2 -31 -4 -65 -11 -175 -126 -458 -315 -774 -248
-414 -695 -1004 -842 -1111 l-38 -27 38 -34 c98 -89 240 -161 346 -178 50 -8
95 -8 160 0 49 6 101 8 116 5 71 -16 249 91 390 234 154 156 280 340 407 594
85 172 129 288 159 417 37 161 32 223 -37 490 -36 136 -150 292 -277 376 -31
21 -67 47 -79 58 -13 11 -23 18 -24 15z"/>
<path d="M22718 18923 c-8 -29 -60 -60 -125 -74 -29 -7 -53 -16 -53 -21 0 -15
27 -9 92 21 66 30 103 61 96 83 -3 7 -7 3 -10 -9z"/>
<path d="M22957 18889 c7 -7 15 -10 18 -7 3 3 -2 9 -12 12 -14 6 -15 5 -6 -5z"/>
<path d="M23636 18879 c-8 -12 -27 -30 -41 -39 -21 -14 -23 -19 -11 -23 9 -4
28 9 50 34 20 21 36 41 36 44 0 13 -20 3 -34 -16z"/>
<path d="M22998 18873 c7 -3 16 -2 19 1 4 3 -2 6 -13 5 -11 0 -14 -3 -6 -6z"/>
<path d="M23038 18863 c7 -3 16 -2 19 1 4 3 -2 6 -13 5 -11 0 -14 -3 -6 -6z"/>
<path d="M23078 18853 c7 -3 16 -2 19 1 4 3 -2 6 -13 5 -11 0 -14 -3 -6 -6z"/>
<path d="M23283 18813 c9 -2 23 -2 30 0 6 3 -1 5 -18 5 -16 0 -22 -2 -12 -5z"/>
<path d="M23518 18813 c7 -3 16 -2 19 1 4 3 -2 6 -13 5 -11 0 -14 -3 -6 -6z"/>
<path d="M18427 18045 c-32 -65 -56 -119 -55 -121 2 -2 30 33 62 76 50 71 57
85 54 121 -3 40 -3 40 -61 -76z"/>
<path d="M18533 18090 c-6 -19 -25 -71 -42 -114 -17 -44 -29 -81 -27 -83 8 -8
104 173 96 182 -4 5 -10 19 -12 30 -2 15 -6 12 -15 -15z"/>
<path d="M22316 17564 c-58 -243 -205 -493 -418 -706 l-117 -117 32 -5 c320
-50 501 -39 592 37 21 17 44 46 51 64 40 94 -5 493 -77 701 -17 48 -34 90 -38
95 -4 4 -15 -27 -25 -69z"/>
</g>
</svg>
